<?xml version="1.0" encoding="utf-8"?>
<!-- Generator: Adobe Illustrator 19.2.1, SVG Export Plug-In . SVG Version: 6.00 Build 0)  -->
<svg version="1.0" id="Layer_1" xmlns="http://www.w3.org/2000/svg" xmlns:xlink="http://www.w3.org/1999/xlink" x="0px" y="0px"
	 viewBox="0 0 300 150" enable-background="new 0 0 300 150" xml:space="preserve">
<g>
	<path fill-rule="evenodd" clip-rule="evenodd" fill="#2E3C40" d="M147.3,18.7c17.4,0,31,0.8,45.8,3.3c16.1,2.7,31.2,6.4,43.3,13.4
		c0.9,0.5,1.6,0.8,2.7,1.6c4.7,3,10.6,7.9,11.7,14.4c0.9,5.3-1.5,9.6-4.2,12.6c-2.8,3.2-6.1,5.6-9.8,7.7
		c-14.7,8.4-34.2,12.9-54.3,15.2c-9.4,1.1-19.2,1.8-30.7,1.8c-11.2,0-21.1-0.5-30.7-1.4c-19.4-1.9-39.8-6-55.1-13.8
		c-3.8-1.9-7.4-4-10.6-6.9c-3-2.7-5.9-6-6.8-10.6c-1.4-7.7,4.1-13.4,8.6-16.8c4.9-3.7,11.1-6.8,17.1-9.1c12.5-4.7,27.5-7.7,42.5-9.6
		C126.8,19.4,135.7,18.8,147.3,18.7z M147.7,25.7c-13.5,0-26.3,2.4-37.5,6.6c-5.5,2-10.4,4.5-14.7,8.1c-3.7,3.1-8.2,8.2-7.1,15.1
		c0.9,6,5.6,10.2,9.7,13.1c4.5,3.2,9.9,5.6,15.4,7.3c11.9,3.8,25.2,5.5,38.9,5.4c13-0.1,26.8-2.4,37.6-6.6
		c5.3-2.1,10.4-4.6,14.6-8.2c3.8-3.2,7.9-8.5,6.9-15c-0.9-5.8-5.4-10.1-9.7-13.1c-4.7-3.3-9.8-5.4-15.4-7.3
		c-8.7-2.9-18.5-4.6-28-5.1c-3-0.1-6.9-0.4-10.5-0.3C147.8,25.7,147.8,25.7,147.7,25.7z"/>
	<path fill-rule="evenodd" clip-rule="evenodd" fill="#2E3C40" d="M13.6,101.9c5.8,0,10.9-0.1,15.6,0.9c1.6,0.3,3.3,0.9,3.9,2.1
		c0.5,1.1,0.3,2.9,0.3,5.6c0,5,0,9.5,0,14.7c0,0.9,0.1,2.1-0.1,2.8c-0.8,2.1-4.9,2.6-7.1,2.8c-5.8,0.6-12.6,0.6-18.5,0
		c-2.3-0.2-6.4-0.7-7.3-2.7c-0.5-1.2-0.3-3.9-0.3-5.7c0-4.2,0-7.4,0-11.7c0-2.1-0.3-4.8,0.5-6.1c0.8-1.3,3.6-2,5.8-2.3
		C8.9,102,10.8,101.9,13.6,101.9z M13.1,105.5c-0.2,0.5-0.1,1.8-0.1,2.6c0,4.9,0,9.1,0,13.9c0,1.6-0.3,4.5,0.2,5.4
		c0.5,0.9,2,0.9,3.5,1c1.2,0,3,0.1,3.6-0.9c0.5-0.9,0.2-3.5,0.2-5.3c0-4.5,0-6.7,0-11.1c0-1.2,0.3-4.6-0.1-5.5
		c-0.5-1.2-3.5-1.1-4.6-1C15,104.7,13.5,104.7,13.1,105.5z"/>
	<path fill-rule="evenodd" clip-rule="evenodd" fill="#2E3C40" d="M63.4,102.2c5.2,0,10.9,0,16.3,0c3.7,9.5,7.5,19,11.2,28.5
		c-4.9,0-9.8,0-14.7,0c-0.8-2.3-1.5-4.7-2.4-7.1c-2.7-0.1-5.9-0.1-8.7,0c-0.8,2.3-1.4,4.7-2,7.1c-3.3,0-6.7,0-10,0
		c2.5-7.1,5.1-14.2,7.7-21.3C61.6,107,62.5,104.3,63.4,102.2z M65.7,120.3c2.2-0.1,4.9-0.1,7.1,0c-1.3-3.7-2.5-7.5-3.9-11.2
		C68,112.9,66.8,116.5,65.7,120.3z"/>
	<path fill-rule="evenodd" clip-rule="evenodd" fill="#2E3C40" d="M126.3,113.7c3-3.1,6.2-6.7,9.4-10.1c0.4-0.4,1.1-1.2,1.4-1.3
		c0.8-0.2,2.1,0,3,0c2.9,0,6,0.1,8.9-0.1c0.1,0.3-0.3,0.5-0.5,0.7c-3.3,3.6-6.9,7.5-10.3,11.1c3.4,5.6,7,11.3,10.2,16.8
		c-4.9,0-9.8,0-14.7,0c-2.6-4-4.8-8.4-7.3-12.4c0,4.1,0,8.3,0,12.4c-4.6,0-9.3,0-13.9,0c0-9.2,0.1-19.1-0.1-28.4
		c4.4-0.1,9.5,0,13.8-0.1c0.3,0,0.2,0.8,0.2,1.2C126.3,106.7,126.3,110.4,126.3,113.7z"/>
	<path fill-rule="evenodd" clip-rule="evenodd" fill="#2E3C40" d="M170.2,102.2c4.6,0,9.2,0,13.8,0c0,8.2,0,16.7,0,24.7
		c4.6,0,9.4-0.1,13.8,0.1c0,1.3,0,2.5,0,3.8c-9.3,0-18.5,0-27.8,0c0.1-8.7,0-19.1,0.1-28.4C170.1,102.3,170.2,102,170.2,102.2z"/>
	<path fill-rule="evenodd" clip-rule="evenodd" fill="#2E3C40" d="M218.6,102.2c9.1,0,18.2,0,27.2,0c0,1.2,0,2.4,0,3.6
		c-4.4,0-8.8,0-13.3,0c-0.1,2.8,0,5.8-0.1,8.7c3.4,0,7-0.1,10.3,0.1c0,1.2,0,2.4,0.1,3.3c-3.4,0-6.8,0-10.3,0c0,3,0,6,0,9.1
		c4.3,0.1,8.8,0,13.2,0.1c0,1.2,0,2.4,0,3.6c-9.1,0-18.2,0-27.2,0c0-9.5,0-18.9,0-28.4C218.6,102.2,218.6,102.1,218.6,102.2z"/>
	<path fill-rule="evenodd" clip-rule="evenodd" fill="#2E3C40" d="M299.9,102.1C300,102.1,300,102.2,299.9,102.1
		c-3.7,6-7.9,12.1-11.9,18c0,3.4-0.1,7.4,0.1,10.5c-4.5,0.1-9.4,0-14,0.1c0-2.5,0-5.1,0-7.8c0-0.9,0.2-1.9,0-2.6
		c-0.1-0.7-1-1.6-1.5-2.3c-3.6-5.2-7.1-10.6-10.5-15.7c4.9,0,9.8,0,14.7,0c2.2,3.4,4.1,7,6.2,10.6c2.1-3.5,4.1-7.1,6.2-10.6
		C292.8,102.2,296.5,102.3,299.9,102.1z"/>
</g>
</svg>
